name analog
datacolumns 19
datarows 50
range 0.11900000000000001 0.14350000000000002
endheader
time	ground_force_vx	ground_force_vy	ground_force_vz	ground_force_px	ground_force_py	ground_force_pz	l_ground_force_vx	l_ground_force_vy	l_ground_force_vz	l_ground_force_px	l_ground_force_py	l_ground_force_pz	ground_torque_x	ground_torque_y	ground_torque_z	l_ground_torque_x	l_ground_torque_y	l_ground_torque_z
0.11900000000000001	-0.0	-0.0	-0.0	3.8651294708251953	12.42852020263672	-627.6417846679688	-0.0	-0.0	-0.0	-0.0	-0.0	-0.0	-0.0	-0.0	-0.0	-0.0	-0.0	-0.0
0.11950000000000001	-0.0	-0.0	-0.0	3.2310540676116943	12.398855209350586	-627.7189331054688	-0.0	-0.0	-0.0	-0.0	-0.0	-0.0	-0.0	-0.0	-0.0	-0.0	-0.0	-0.0
0.12	-0.0	-0.0	-0.0	3.598020076751709	12.36927318572998	-625.0498657226562	-0.0	-0.0	-0.0	-0.0	-0.0	-0.0	-0.0	-0.0	-0.0	-0.0	-0.0	-0.0
0.1205	-0.0	-0.0	-0.0	3.3994953632354736	12.152069091796877	-622.8516235351562	-0.0	-0.0	-0.0	-0.0	-0.0	-0.0	-0.0	-0.0	-0.0	-0.0	-0.0	-0.0
0.121	-0.0	-0.0	-0.0	4.05281400680542	12.240015029907228	-621.6396484375	-0.0	-0.0	-0.0	-0.0	-0.0	-0.0	-0.0	-0.0	-0.0	-0.0	-0.0	-0.0
0.1215	-0.0	-0.0	-0.0	4.253147125244141	12.081602096557615	-617.6321411132812	-0.0	-0.0	-0.0	-0.0	-0.0	-0.0	-0.0	-0.0	-0.0	-0.0	-0.0	-0.0
0.122	-0.0	-0.0	-0.0	4.587156772613525	12.202234268188477	-617.3243408203125	-0.0	-0.0	-0.0	-0.0	-0.0	-0.0	-0.0	-0.0	-0.0	-0.0	-0.0	-0.0
0.1225	-0.0	-0.0	-0.0	3.985939502716065	12.38912582397461	-615.70556640625	-0.0	-0.0	-0.0	-0.0	-0.0	-0.0	-0.0	-0.0	-0.0	-0.0	-0.0	-0.0
0.123	-0.0	-0.0	-0.0	4.667304039001465	11.497821807861328	-615.3517456054688	-0.0	-0.0	-0.0	-0.0	-0.0	-0.0	-0.0	-0.0	-0.0	-0.0	-0.0	-0.0
0.1235	-0.0	-0.0	-0.0	5.283780097961426	11.525927543640137	-611.930419921875	-0.0	-0.0	-0.0	-0.0	-0.0	-0.0	-0.0	-0.0	-0.0	-0.0	-0.0	-0.0
0.124	-0.0	-0.0	-0.0	5.3191986083984375	11.093013763427734	-609.8313598632812	-0.0	-0.0	-0.0	-0.0	-0.0	-0.0	-0.0	-0.0	-0.0	-0.0	-0.0	-0.0
0.1245	-0.0	-0.0	-0.0	5.895109176635742	10.873908996582031	-609.3976440429688	-0.0	-0.0	-0.0	-0.0	-0.0	-0.0	-0.0	-0.0	-0.0	-0.0	-0.0	-0.0
0.125	-0.0	-0.0	-0.0	5.565330505371094	10.359689712524414	-607.1435546875	-0.0	-0.0	-0.0	-0.0	-0.0	-0.0	-0.0	-0.0	-0.0	-0.0	-0.0	-0.0
0.1255	-0.0	-0.0	-0.0	5.771392345428467	10.483475685119627	-605.9224243164062	-0.0	-0.0	-0.0	-0.0	-0.0	-0.0	-0.0	-0.0	-0.0	-0.0	-0.0	-0.0
0.126	-0.0	-0.0	-0.0	5.90860652923584	10.154513359069824	-607.4126586914062	-0.0	-0.0	-0.0	-0.0	-0.0	-0.0	-0.0	-0.0	-0.0	-0.0	-0.0	-0.0
0.1265	-0.0	-0.0	-0.0	5.90266227722168	10.27077293395996	-604.9148559570312	-0.0	-0.0	-0.0	-0.0	-0.0	-0.0	-0.0	-0.0	-0.0	-0.0	-0.0	-0.0
0.127	-0.0	-0.0	-0.0	5.956249713897705	10.538223266601562	-604.3963623046875	-0.0	-0.0	-0.0	-0.0	-0.0	-0.0	-0.0	-0.0	-0.0	-0.0	-0.0	-0.0
0.1275	-0.0	-0.0	-0.0	6.627999305725098	10.580120086669922	-603.7108764648438	-0.0	-0.0	-0.0	-0.0	-0.0	-0.0	-0.0	-0.0	-0.0	-0.0	-0.0	-0.0
0.128	-0.0	-0.0	-0.0	7.294251441955566	10.984030723571776	-602.4622802734375	-0.0	-0.0	-0.0	-0.0	-0.0	-0.0	-0.0	-0.0	-0.0	-0.0	-0.0	-0.0
0.1285	-0.0	-0.0	-0.0	7.409407138824463	10.906147956848145	-599.0570678710938	-0.0	-0.0	-0.0	-0.0	-0.0	-0.0	-0.0	-0.0	-0.0	-0.0	-0.0	-0.0
0.129	-0.0	-0.0	-0.0	7.935131549835205	10.941906929016112	-597.1253662109375	-0.0	-0.0	-0.0	-0.0	-0.0	-0.0	-0.0	-0.0	-0.0	-0.0	-0.0	-0.0
0.1295	-0.0	-0.0	-0.0	8.662158966064453	11.391865730285645	-595.5626831054688	-0.0	-0.0	-0.0	-0.0	-0.0	-0.0	-0.0	-0.0	-0.0	-0.0	-0.0	-0.0
0.13	-0.0	-0.0	-0.0	9.299176216125488	11.501893997192385	-592.0137939453125	-0.0	-0.0	-0.0	-0.0	-0.0	-0.0	-0.0	-0.0	-0.0	-0.0	-0.0	-0.0
0.1305	-0.0	-0.0	-0.0	10.722882270812988	11.25177764892578	-593.00390625	-0.0	-0.0	-0.0	-0.0	-0.0	-0.0	-0.0	-0.0	-0.0	-0.0	-0.0	-0.0
0.131	-0.0	-0.0	-0.0	12.385855674743652	11.323067665100098	-588.7371215820312	-0.0	-0.0	-0.0	-0.0	-0.0	-0.0	-0.0	-0.0	-0.0	-0.0	-0.0	-0.0
0.1315	-0.0	-0.0	-0.0	14.233888626098633	11.608433723449709	-586.8999633789062	-0.0	-0.0	-0.0	-0.0	-0.0	-0.0	-0.0	-0.0	-0.0	-0.0	-0.0	-0.0
0.132	-0.0	-0.0	-0.0	15.65788745880127	11.743651390075684	-583.2937622070312	-0.0	-0.0	-0.0	-0.0	-0.0	-0.0	-0.0	-0.0	-0.0	-0.0	-0.0	-0.0
0.1325	-0.0	-0.0	-0.0	17.1527099609375	11.98936367034912	-580.8953247070312	-0.0	-0.0	-0.0	-0.0	-0.0	-0.0	-0.0	-0.0	-0.0	-0.0	-0.0	-0.0
0.133	-0.0	-0.0	-0.0	17.752891540527344	12.051987648010254	-577.2772216796875	-0.0	-0.0	-0.0	-0.0	-0.0	-0.0	-0.0	-0.0	-0.0	-0.0	-0.0	-0.0
0.1335	-0.0	-0.0	-0.0	17.71133041381836	12.295940399169922	-572.9442138671875	-0.0	-0.0	-0.0	-0.0	-0.0	-0.0	-0.0	-0.0	-0.0	-0.0	-0.0	-0.0
0.134	-0.0	-0.0	-0.0	16.902698516845703	13.28222370147705	-569.8594360351562	-0.0	-0.0	-0.0	-0.0	-0.0	-0.0	-0.0	-0.0	-0.0	-0.0	-0.0	-0.0
0.1345	-0.0	-0.0	-0.0	16.816913604736328	13.547821044921877	-566.9522705078125	-0.0	-0.0	-0.0	-0.0	-0.0	-0.0	-0.0	-0.0	-0.0	-0.0	-0.0	-0.0
0.135	-0.0	-0.0	-0.0	15.767035484313965	14.17050552368164	-563.3171997070312	-0.0	-0.0	-0.0	-0.0	-0.0	-0.0	-0.0	-0.0	-0.0	-0.0	-0.0	-0.0
0.1355	-0.0	-0.0	-0.0	15.098647117614746	15.242225646972656	-561.19921875	-0.0	-0.0	-0.0	-0.0	-0.0	-0.0	-0.0	-0.0	-0.0	-0.0	-0.0	-0.0
0.136	-0.0	-0.0	-0.0	14.0497465133667	15.509900093078612	-555.9027709960938	-0.0	-0.0	-0.0	-0.0	-0.0	-0.0	-0.0	-0.0	-0.0	-0.0	-0.0	-0.0
0.1365	-0.0	-0.0	-0.0	12.75673007965088	15.753891944885254	-553.78759765625	-0.0	-0.0	-0.0	-0.0	-0.0	-0.0	-0.0	-0.0	-0.0	-0.0	-0.0	-0.0
0.137	-0.0	-0.0	-0.0	10.77217960357666	15.218985557556152	-550.519287109375	-0.0	-0.0	-0.0	-0.0	-0.0	-0.0	-0.0	-0.0	-0.0	-0.0	-0.0	-0.0
0.1375	-0.0	-0.0	-0.0	8.18575382232666	14.840336799621582	-548.4874877929688	-0.0	-0.0	-0.0	-0.0	-0.0	-0.0	-0.0	-0.0	-0.0	-0.0	-0.0	-0.0
0.138	-0.0	-0.0	-0.0	6.378793239593506	14.10500717163086	-548.4884033203125	-0.0	-0.0	-0.0	-0.0	-0.0	-0.0	-0.0	-0.0	-0.0	-0.0	-0.0	-0.0
0.1385	-0.0	-0.0	-0.0	5.1075053215026855	13.125469207763672	-546.639892578125	-0.0	-0.0	-0.0	-0.0	-0.0	-0.0	-0.0	-0.0	-0.0	-0.0	-0.0	-0.0
0.139	-0.0	-0.0	-0.0	5.0613861083984375	11.899432182312012	-546.9905395507812	-0.0	-0.0	-0.0	-0.0	-0.0	-0.0	-0.0	-0.0	-0.0	-0.0	-0.0	-0.0
0.1395	-0.0	-0.0	-0.0	4.794727325439453	10.961689949035645	-548.57275390625	-0.0	-0.0	-0.0	-0.0	-0.0	-0.0	-0.0	-0.0	-0.0	-0.0	-0.0	-0.0
0.14	-0.0	-0.0	-0.0	3.704743623733521	9.739583969116213	-546.9024658203125	-0.0	-0.0	-0.0	-0.0	-0.0	-0.0	-0.0	-0.0	-0.0	-0.0	-0.0	-0.0
0.1405	-0.0	-0.0	-0.0	2.2321677207946777	9.402305603027344	-547.1658935546875	-0.0	-0.0	-0.0	-0.0	-0.0	-0.0	-0.0	-0.0	-0.0	-0.0	-0.0	-0.0
0.14100000000000001	-0.0	-0.0	-0.0	1.4296042919158936	9.13474941253662	-551.1240234375	-0.0	-0.0	-0.0	-0.0	-0.0	-0.0	-0.0	-0.0	-0.0	-0.0	-0.0	-0.0
0.14150000000000001	-0.0	-0.0	-0.0	1.3381576538085938	8.289127349853516	-555.36083984375	-0.0	-0.0	-0.0	-0.0	-0.0	-0.0	-0.0	-0.0	-0.0	-0.0	-0.0	-0.0
0.14200000000000002	-0.0	-0.0	-0.0	1.4963487386703491	7.397823333740234	-559.2549438476562	-0.0	-0.0	-0.0	-0.0	-0.0	-0.0	-0.0	-0.0	-0.0	-0.0	-0.0	-0.0
0.14250000000000002	-0.0	-0.0	-0.0	1.711886286735535	6.529574871063232	-561.7388305664062	-0.0	-0.0	-0.0	-0.0	-0.0	-0.0	-0.0	-0.0	-0.0	-0.0	-0.0	-0.0
0.14300000000000002	-0.0	-0.0	-0.0	0.6244735717773438	6.232475280761719	-565.7158203125	-0.0	-0.0	-0.0	-0.0	-0.0	-0.0	-0.0	-0.0	-0.0	-0.0	-0.0	-0.0
0.14350000000000002	-0.0	-0.0	-0.0	-0.2516853213310241	5.994926929473877	-567.6664428710938	-0.0	-0.0	-0.0	-0.0	-0.0	-0.0	-0.0	-0.0	-0.0	-0.0	-0.0	-0.0
